<svg id="Layer_1" enable-background="new 0 0 496 496" height="512" viewBox="0 0 496 496" width="512" xmlns="http://www.w3.org/2000/svg"><path d="m448 48c17.67 0 32 14.33 32 32v336c0 17.67-14.33 32-32 32h-400c-17.67 0-32-14.33-32-32v-336c0-17.67 14.33-32 32-32z" fill="#b9dcff"/><path d="m448.107 98h-350.107c-17.673 0-32 14.327-32 32v286.107c0 32.544-50 34.259-50-.107v-336c0-17.673 14.327-32 32-32h400c34.366 0 32.65 50 .107 50z" fill="#d1e7ff"/><path d="m480 80v64h-464v-64c0-17.67 14.33-32 32-32h400c17.67 0 32 14.33 32 32z" fill="#a2d0ff"/><path d="m448.107 98h-350.107c-17.673 0-32 14.327-32 32v14h-50v-64c0-17.673 14.327-32 32-32h400c34.366 0 32.65 50 .107 50z" fill="#b9dcff"/><circle cx="242.667" cy="286" fill="#a2d0ff" r="78"/><path d="m241.994 208.009c14.396-.257 17.965 19.641 4.421 24.53-31.643 11.423-53.606 42.055-51.628 77.835.779 14.091-18.896 18.367-24.271 5.318-20.889-50.712 15.234-106.678 71.478-107.683z" fill="#d1e7ff"/><path d="m215.833 306.976v-36.951c0-12.309 13.355-20.002 24-13.856l32 18.476c10.661 6.156 10.643 21.568 0 27.713l-32 18.476c-10.66 6.151-24-1.566-24-13.858z" fill="#e8f3ff"/><path d="m448 32h-400c-26.467 0-48 21.532-48 48v336c0 26.468 21.533 48 48 48h400c26.467 0 48-21.532 48-48v-336c0-26.468-21.533-48-48-48zm16 384c0 8.822-7.178 16-16 16h-400c-8.822 0-16-7.178-16-16v-256h400c8.836 0 16-7.163 16-16s-7.164-16-16-16h-400v-48c0-8.822 7.178-16 16-16h400c8.822 0 16 7.178 16 16zm-406.12-305.23c-12.373-5.161-13.389-22.375-1.42-28.88 9.387-4.903 20.901.155 23.23 10.98 2.478 12.86-10.299 22.701-21.81 17.9zm46.58-.661c-10.411-5.658-11.1-19.639-2.6-26.479 6.952-5.738 17.179-4.388 22.51 2.229 10.746 13.036-3.927 32.598-19.91 24.25zm58.67 1.58c-8.314 1.608-16.838-3.366-18.82-12.56-1.605-8.347 3.371-16.831 12.56-18.82 8.497-1.628 16.879 3.533 18.82 12.561 1.628 8.448-3.492 16.874-12.56 18.819zm108.703 190.667-32 18.476c-10.644 6.144-24-1.543-24-13.856v-36.951c0-12.276 13.324-20.02 24-13.856l32 18.476c10.627 6.134 10.685 21.543 0 27.711zm-29.833-110.356c-51.832 0-94 42.168-94 94s42.168 94 94 94 94-42.168 94-94-42.168-94-94-94zm0 156c-34.187 0-62-27.813-62-62s27.813-62 62-62 62 27.813 62 62-27.813 62-62 62z" fill="#2e58ff"/></svg>