<svg id="Layer_1" enable-background="new 0 0 479.857 479.857" height="512" viewBox="0 0 479.857 479.857" width="512" xmlns="http://www.w3.org/2000/svg"><path d="m456.942 303.172-208.8 88.8c-12.09 5.14-26.06-.49-31.2-12.59l-132.58-311.745-44.66 18.995c-11.86 5.04-25.61-.72-30.26-12.86-4.44-11.56 1.49-24.55 12.89-29.39l72.87-30.99c8.13-3.46 17.52.32 20.98 8.44l135.23 317.04 14.01-5.96c-7.73 3.29-16.67-.31-19.97-8.05l-59.58-140.11c-3.29-7.74.31-16.68 8.05-19.97l140.12-59.59c7.73-3.29 16.67.32 19.97 8.06l59.58 140.11c3.27 7.7-.27 16.59-7.93 19.92l33.15-14.1c11.95-5.08 25.74.36 31.02 12.16 5.45 12.17-.62 26.61-12.89 31.83z" fill="#d1e7ff"/><path d="m238.993 370.377c6.017 14.202-15.477 24.48-22.051 9.005l-132.58-311.745 14.968-6.37c4.07-1.731 8.772.169 10.497 4.241z" fill="#e8f3ff"/><path d="m454.757 258.227c4.793 1.394 4.819 8.081.135 9.806-.869.32-50.685 21.521-181.894 77.317-3.658 1.556-7.879-.149-9.438-3.806-1.561-3.662.137-7.893 3.8-9.451l171.452-72.91c5.254-2.235 10.861-2.435 15.945-.956z" fill="#e8f3ff"/><path d="m116.182 21.832 11.65 27.32-88.13 37.48c-11.86 5.04-25.61-.72-30.26-12.86-4.44-11.56 1.49-24.55 12.89-29.39l72.87-30.99c8.13-3.46 17.52.32 20.98 8.44z" fill="#b9dcff"/><path d="m113.56 28.347-61.228 26.035c-7.267 2.216-13.744 8.656-15.262 17.101-2.521 14.028-22.167 15.875-27.485 2.651-4.706-11.702 1.257-24.874 12.748-29.752l72.87-30.99c8.13-3.46 17.518.321 20.98 8.44 1.075 2.524-.099 5.441-2.623 6.515z" fill="#d1e7ff"/><path d="m413.592 253.362-59.58-140.11c-3.3-7.74-12.24-11.35-19.97-8.06l-140.12 59.59c-7.74 3.29-11.34 12.23-8.05 19.97l59.58 140.11c3.3 7.74 12.24 11.34 19.97 8.05l140.24-59.63c7.66-3.33 11.2-12.22 7.93-19.92z" fill="#b9dcff"/><g fill="#d1e7ff"><path d="m355.674 117.163c1.728 4.065-.166 8.761-4.23 10.49l-33.441 14.227c-4.066 1.73-8.764-.165-10.494-4.231l-7.627-17.927 34.16-14.53c7.73-3.29 16.67.32 19.97 8.06z"/><path d="m282.652 325.582-17.23 7.33c-7.73 3.29-16.67-.31-19.97-8.05l-59.58-140.11c-3.29-7.74.31-16.68 8.05-19.97l34.16-14.53 9.513 22.379c.684 1.608-.065 3.467-1.673 4.151-7.738 3.293-11.34 12.23-8.05 19.97z"/><path d="m299.882 119.722 25.307 59.496c2.367 5.565-2.059 11.644-8.083 11.099l-26.51-2.399c-2.67-.242-5.283.87-6.96 2.96l-16.654 20.753c-3.786 4.717-11.235 3.689-13.602-1.877l-25.298-59.504z"/></g><path d="m307.509 137.65c1.73 4.067-.165 8.764-4.233 10.493l-57.082 24.268c-4.066 1.729-8.765-.166-10.493-4.232l-7.62-17.926 71.8-30.53z" fill="#e8f3ff"/><circle cx="242.922" cy="366.742" fill="#a2d0ff" r="101"/><path d="m150.922 408.477c-30.549-67.225 19.767-143.668 93.32-142.726 13.264.17 15.7 19.033 2.898 22.506-48.475 13.148-81.507 64.278-74.398 114.017 1.864 13.044-16.368 18.199-21.82 6.203z" fill="#b9dcff"/><circle cx="242.922" cy="366.742" fill="#b9dcff" r="44"/><path d="m207.031 392.202c-5.502-7.743-8.561-17.343-8.054-27.677 1.111-22.642 19.703-41.062 42.566-41.761 7.81-.239 10.309 10.448 3.212 13.716-18.558 8.546-29.182 30.04-24.891 49.953 1.638 7.602-8.329 12.109-12.833 5.769z" fill="#d1e7ff"/><g fill="#2e58ff"><path d="m477.136 268.071c-7.027-15.692-25.621-22.986-41.451-16.253l-108.331 46.069c-24.42-29.889-62.656-44.83-101.199-38.855l-32.921-77.413c-1.56-3.667.155-7.917 3.821-9.477l98.598-41.93 22.173 52.141-30.779-2.79c-2.676-.24-5.285.87-6.962 2.96l-19.343 24.104-10.459-24.596c-1.729-4.065-6.426-5.961-10.493-4.231-4.065 1.729-5.96 6.427-4.231 10.493l15.692 36.901c2.364 5.556 9.82 6.591 13.602 1.876l25.024-31.186 39.821 3.609c6.017.543 10.449-5.537 8.085-11.098l-27.406-64.446 26.79-11.393c3.672-1.563 7.914.146 9.477 3.822l49.187 115.663c1.729 4.066 6.427 5.96 10.493 4.231 4.065-1.729 5.96-6.427 4.231-10.493l-49.185-115.661c-5.023-11.807-18.643-17.311-30.463-12.284l-140.113 59.584c-2.364 1.005-4.491 2.384-6.356 4.044l-60.895-142.765c-5.185-12.159-19.302-17.844-31.468-12.669l-72.874 30.99c-15.379 6.54-23.109 24.316-17.233 39.626 6.266 16.318 24.759 24.196 40.867 17.346l37.298-15.861 75.28 177.022c1.735 4.079 6.44 5.955 10.493 4.231 4.065-1.729 5.96-6.427 4.231-10.493l-75.279-177.022 2.454-1.044c4.065-1.729 5.96-6.427 4.231-10.493-1.729-4.065-6.427-5.961-10.493-4.231l-54.477 23.167c-7.698 3.271-16.627-.436-19.668-8.356-2.825-7.361 1.014-15.959 8.558-19.168l72.874-30.99c4.057-1.724 8.761.171 10.489 4.223l101.42 237.773c-44.188 13.915-76.324 55.271-76.324 103.994 0 60.103 48.897 109 109 109s109-48.897 109-109c0-20.236-5.55-39.197-15.197-55.454l105.221-44.746c7.864-3.341 17.098.277 20.586 8.069 3.63 8.103-.589 17.745-8.721 21.203l-74.065 31.497c-4.065 1.729-5.96 6.427-4.231 10.493 1.735 4.079 6.44 5.955 10.493 4.231l74.065-31.497c16.125-6.858 24.457-25.955 17.063-42.467zm-234.214 191.671c-51.28 0-93-41.72-93-93s41.72-93 93-93 93 41.72 93 93-41.72 93-93 93z"/><path d="m272.044 332.807c-3.429 2.786-3.95 7.825-1.164 11.254 18.925 23.294 2.42 58.681-27.958 58.681-19.851 0-36-16.149-36-36 0-18.877 14.734-34.654 33.543-35.918 4.408-.296 7.742-4.11 7.446-8.518-.297-4.408-4.089-7.738-8.519-7.446-27.18 1.826-48.471 24.616-48.471 51.882 0 28.673 23.327 52 52 52s52-23.327 52-52c0-11.907-4.128-23.545-11.624-32.771-2.785-3.428-7.822-3.95-11.253-1.164z"/></g></svg>