<?xml version="1.0" encoding="utf-8"?>
<!-- Generator: Adobe Illustrator 19.2.1, SVG Export Plug-In . SVG Version: 6.00 Build 0)  -->
<svg xmlns="http://www.w3.org/2000/svg" xmlns:xlink="http://www.w3.org/1999/xlink" version="1.1" id="Layer" x="0px" y="0px" width="512" height="512" viewBox="0 0 64 64" enable-background="new 0 0 64 64" xml:space="preserve">
<path fill="#CCE4FF" d="M46,10H18c-4.42,0-8,3.58-8,8v28c0,4.42,3.58,8,8,8h28c4.42,0,8-3.58,8-8V18C54,13.58,50.42,10,46,10z   M32,43c-6.08,0-11-4.92-11-11c0-6.08,4.92-11,11-11s11,4.92,11,11C43,38.08,38.08,43,32,43z M46,19c-0.55,0-1-0.45-1-1s0.45-1,1-1  s1,0.45,1,1S46.55,19,46,19z"/>
<path fill="#007AFF" d="M46,8H18C12.486,8,8,12.486,8,18v28c0,5.514,4.486,10,10,10h28c5.514,0,10-4.486,10-10V18  C56,12.486,51.514,8,46,8z M52,46c0,3.309-2.691,6-6,6H18c-3.309,0-6-2.691-6-6V18c0-3.309,2.691-6,6-6h28c3.309,0,6,2.691,6,6V46z"/>
<path fill="#007AFF" d="M32,19c-7.169,0-13,5.831-13,13c0,7.168,5.831,13,13,13s13-5.832,13-13C45,24.831,39.169,19,32,19z M32,41  c-4.962,0-9-4.038-9-9s4.038-9,9-9s9,4.038,9,9S36.962,41,32,41z"/>
<circle fill="#007AFF" cx="46" cy="18" r="3"/>
</svg>
