<svg id="Layer_1" enable-background="new 0 0 480.067 480.067" height="512" viewBox="0 0 480.067 480.067" width="512" xmlns="http://www.w3.org/2000/svg"><path d="m455.489 176.964c-22.529-77.333-85.116-136.171-161.854-154.93-116.916-28.58-235.628 39.574-269.1 154.91-41.906 145.252 67.545 289.136 217.96 287.5 146.574-1.59 254.983-143.344 212.994-287.48zm-163.104 190.8c-90.634 37.198-190.33-29.678-190.33-127.73 0-97.992 99.628-164.956 190.33-127.73 50.379 20.65 85.67 70.158 85.67 127.73 0 57.567-35.287 107.078-85.67 127.73z" fill="#d1e7ff"/><g fill="#e8f3ff"><path d="m333.536 44.702c-7.77-2.287-15.69-4.157-23.724-5.588-3.834-.683-6.63-4.002-6.626-7.897.003-3.295-.051-5.508-.061-6.633 11.486 3.353 22.587 7.6 33.223 12.659 4.456 2.119 1.922 8.852-2.812 7.459z"/><path d="m172.963 57.467c-49.436 23.612-88.708 64.754-109.94 115.476-1.331 3.179-4.535 5.163-7.971 4.896-10.102-.785-20.255-1.077-30.437-.875l-.08-.02c21.31-73.43 78.93-131.12 152.43-152.43.194.774-.465 8.911.533 25.286.198 3.241-1.605 6.268-4.535 7.667z"/><path d="m71.291 387.984c-21.268-24.247-37.381-53.108-46.676-84.88 6.067.117 12.166.063 18.285-.174 3.879-.15 7.288 2.493 8.131 6.282 5.58 25.066 15.632 49.388 29.839 71.602 4.001 6.257-4.682 12.753-9.579 7.17z"/><path d="m373.145 186.306c-1.79.449-3.577.916-5.36 1.398-4.29-10.461-9.827-20.281-16.426-29.269-2.779-3.786 2.112-8.436 5.75-5.465 9.142 7.467 15.811 14.888 20.363 20.583 3.644 4.56 1.335 11.331-4.327 12.753z"/><path d="m393.181 298.094c4.892.891 7.773 6.026 6.017 10.678-15.651 41.459-50.322 72.711-92.358 84.303-4.464 1.231-9.006-1.633-9.929-6.171-1.298-6.381-2.804-12.763-4.526-19.141 34.13-13.99 61.41-41.27 75.4-75.4 8.461 2.282 16.933 4.189 25.396 5.731z"/></g><path d="m455.405 303.104c-28.81.56-58.27-2.82-87.62-10.74 13.673-33.314 13.727-71.215 0-104.66 28.62-7.72 58.054-11.33 87.704-10.74 12.362 42.595 11.642 86.766-.084 126.14z" fill="#b9dcff"/><path d="m404.229 292.443c-.985 4.091-4.999 6.72-9.144 5.992-9.096-1.599-18.205-3.619-27.301-6.071 13.7-33.381 13.699-71.282 0-104.66 3.858-1.044 7.729-2.01 11.615-2.898 3.338-.763 6.821.652 8.604 3.574 19.567 32.066 24.473 69.819 16.226 104.063z" fill="#d1e7ff"/><path d="m293.635 22.034c1.561.382 9.489 2.444 9.49 2.56.285 28.844-2.81 58.33-10.74 87.71-33.314-13.673-71.215-13.727-104.66 0-7.72-28.62-11.33-58.06-10.74-87.71l-.02-.08c36.742-10.687 77.525-12.049 116.67-2.48z" fill="#b9dcff"/><path d="m294.361 36.911c-35.383-3.811-71.959.642-106.239 13.994-5.122 1.995-10.703-1.6-10.931-7.091-.504-12.159-.136-18.937-.227-19.3 39.795-11.576 84.46-12.186 126.16.07.008.893.041 2.294.056 4.307.036 4.766-4.079 8.53-8.819 8.02z" fill="#d1e7ff"/><path d="m176.985 455.474c-.59-29.65 3.02-59.09 10.74-87.71 33.314 13.673 71.215 13.727 104.66 0 7.92 29.36 11.31 58.83 10.74 87.65-40.33 11.884-84.376 12.219-126.14.06z" fill="#b9dcff"/><path d="m290.3 396.538c-26.691 3.806-51.773-1.124-70.459-8.02-6.66-2.458-4.217-12.455 2.827-11.569 23.229 2.92 47.334.001 69.717-9.185 1.737 6.433 3.255 12.87 4.56 19.306.906 4.467-2.132 8.825-6.645 9.468z" fill="#d1e7ff"/><path d="m24.535 176.944c1.625.406 38.731-2.473 87.79 10.76-13.673 33.314-13.727 71.215 0 104.66-29.38 7.93-58.87 11.31-87.71 10.74-11.72-39.821-12.223-84.074-.08-126.16z" fill="#b9dcff"/><path d="m57.313 188.07c-11.044 32.836-14.65 69.412-9.146 105.793.716 4.736-2.911 9.003-7.698 9.151-5.304.164-10.591.191-15.854.089-11.688-39.703-12.253-83.968-.08-126.16.732.183 9.077-.473 25.691.558 5.271.328 8.771 5.563 7.087 10.569z" fill="#d1e7ff"/><path d="m324.055 250.034v17c0 13.255-10.745 24-24 24h-16c-2.209 0-4-1.791-4-4v-57c0-2.209 1.791-4 4-4h16c13.254 0 24 10.745 24 24z" fill="#b9dcff"/><path d="m301.89 226.103c7.557.572 10.304 10.592 3.924 14.683-3.918 2.513-5.759 6.504-5.759 11.247v31c0 4.418-3.582 8-8 8h-8c-2.209 0-4-1.791-4-4v-57c0-2.209 1.791-4 4-4 0 .001 17.229.024 17.835.07z" fill="#d1e7ff"/><path d="m200.055 230.034v57c0 2.209-1.791 4-4 4h-16c-13.255 0-24-10.745-24-24v-17c0-13.255 10.745-24 24-24h16c2.209 0 4 1.791 4 4z" fill="#b9dcff"/><path d="m200.055 230.034v2.237c0 3.052-2.289 5.597-5.32 5.958-18.411 2.197-23.314 23.262-20.771 41.404.766 5.463-5.769 8.979-9.885 5.306-4.924-4.394-8.024-10.789-8.024-17.906v-17c0-13.255 10.745-24 24-24h16c2.209.001 4 1.792 4 4.001z" fill="#d1e7ff"/><g fill="#2e58ff"><path d="m471.064 366.251c-4.403.371-7.671 4.241-7.3 8.644 4.879 57.847-52.684 106.19-112.621 83.353-5.819-2.217-11.756-4.006-17.793-5.369 102.022-44.947 159.355-156.843 132.634-267.711-1.271-17.575 1.156-34.57 7.235-50.522 29.007-76.122-38.873-149.93-114.62-131.844-4.297 1.027-6.948 5.343-5.922 9.641 1.027 4.297 5.343 6.953 9.641 5.922 63.06-15.076 120.441 46.31 95.95 110.584-2.189 5.746-3.963 11.606-5.32 17.565-35.327-80.354-116.111-138.907-212.881-138.907-96.31 0-177.456 57.666-212.961 138.674-1.35-5.879-3.103-11.663-5.264-17.334-25.827-67.78 38.605-130.79 104.309-108.147 4.179 1.44 8.73-.78 10.17-4.957s-.779-8.73-4.957-10.17c-79.49-27.397-154.729 49.57-124.473 128.971 6.04 15.852 8.473 32.734 7.256 50.193-8.537 35.46-8.843 73.521-.028 109.973 1.286 17.609-1.14 34.634-7.229 50.612-29.454 77.299 40.468 150.555 115.872 131.536 4.284-1.08 6.882-5.429 5.801-9.713-1.079-4.284-5.431-6.883-9.713-5.801-63.264 15.951-121.718-45.476-97.008-110.324 2.201-5.776 3.982-11.669 5.342-17.661 27.582 62.736 81.798 110.424 147.397 129.648 4.568 1.448 9.607-1.503 10.318-6.492.501-3.469-2.025-34.698 8.397-78.258 69.693 23.621 147.175-8.61 179.031-76.56 23.057 5.696 44.314 7.868 46.313 7.868 4.065 0 7.546-3.088 7.952-7.219.432-4.396-2.782-8.312-7.18-8.744-13.764-1.353-27.526-3.684-41.034-6.914 9.953-29.368 10.521-62.469-.002-93.512 23.253-5.563 47.059-8.374 70.988-8.366 29.106 110.372-32.889 222.769-138.228 259.547-.195-12.993-1.167-26.004-2.924-38.816-.601-4.376-4.625-7.445-9.014-6.838-4.377.601-7.438 4.636-6.838 9.014 1.879 13.696 2.826 27.632 2.823 41.515-24.007 6.336-48.398 8.323-72.187 6.469-4.382-.354-8.254 2.949-8.597 7.354-.344 4.404 2.949 8.254 7.354 8.597 23.954 1.866 48.581.109 72.885-5.769 17.674-1.32 34.77 1.105 50.808 7.216 70.878 27.008 140.138-29.967 134.262-99.647-.371-4.405-4.243-7.676-8.644-7.301zm-302.101 78.256c-63.546-22.03-111.885-71.635-133.39-133.383 24.349-.357 48.563-3.489 72.207-9.333 14.509 30.952 39.565 56.009 70.518 70.518-5.844 23.644-8.978 47.854-9.335 72.198zm71.092-74.473c-71.683 0-130-58.317-130-130s58.317-130 130-130 130 58.317 130 130-58.318 130-130 130zm132.274-191.757c-14.509-30.951-39.565-56.007-70.516-70.517 3.397-13.753 5.901-27.785 7.446-41.808.483-4.392-2.685-8.345-7.076-8.828-4.415-.479-8.344 2.686-8.828 7.076-1.384 12.574-3.59 25.152-6.545 37.511-14.685-4.977-30.411-7.677-46.755-7.677-100.02 0-170.229 98.619-138.322 192.759-23.267 5.566-47.101 8.373-71.034 8.365-9.337-35.507-9.545-73.839.084-110.249 14.325.002 28.706 1.004 42.826 3.006 4.418.623 8.429-2.462 9.044-6.798.62-4.374-2.423-8.424-6.798-9.044-13.255-1.879-26.724-2.917-40.179-3.119 21.737-62.159 71.111-111.58 133.309-133.32.246 16.354 1.72 32.715 4.444 48.78.731 4.312 4.818 7.291 9.226 6.55 4.355-.739 7.288-4.869 6.55-9.226-2.847-16.786-4.271-33.913-4.267-51 109.891-29.039 222.613 32.385 259.541 138.206-24.329.363-48.52 3.493-72.15 9.333z"/><path d="m330.988 241.821c-1.132-4.27-5.508-6.813-9.783-5.682-4.271 1.132-6.814 5.512-5.682 9.783.709 2.676.531 2.796.531 21.111 0 8.822-7.178 16-16 16h-12v-49h6c4.418 0 8-3.582 8-8v-19c0-34.187-27.813-62-62-62s-62 27.813-62 62v11.069c-16.716 1.037-30 14.959-30 31.931v17c0 17.645 14.355 32 32 32h20c4.418 0 8-3.582 8-8v-35.678c0-4.418-3.582-8-8-8s-8 3.582-8 8v27.678h-12c-8.822 0-16-7.178-16-16v-17c0-8.822 7.178-16 16-16h6c4.418 0 8-3.582 8-8v-19c0-25.364 20.636-46 46-46s46 20.636 46 46v11h-6c-4.418 0-8 3.582-8 8v65c0 4.418 3.582 8 8 8h2.527c-4.753 10.992-14.913 18.681-27.398 20.048-4.392.48-7.563 4.431-7.081 8.823.476 4.346 4.382 7.565 8.823 7.081 20.388-2.232 37.047-16.622 42.581-35.952 19.091 0 32.548-15.047 32.548-32 .001-17.524.343-19.904-1.066-25.212z"/></g></svg>