<?xml version="1.0" encoding="iso-8859-1"?>
<!-- Generator: Adobe Illustrator 19.0.0, SVG Export Plug-In . SVG Version: 6.00 Build 0)  -->
<svg version="1.1" id="Capa_1" xmlns="http://www.w3.org/2000/svg" xmlns:xlink="http://www.w3.org/1999/xlink" x="0px" y="0px"
	 viewBox="0 0 368.002 368.002" style="enable-background:new 0 0 368.002 368.002;" xml:space="preserve">
<path style="fill:#CCE4FF;" d="M280.004,107.601c0,18.24-4.72,35.2-12.8,49.84l-42.32,74.56l-40.88,72.16l-40.88-72.16l-42.24-74.56
	c-8.24-14.64-12.88-31.6-12.88-49.84c0-55.04,42.96-99.6,96-99.6S280.004,52.561,280.004,107.601z M232.004,104.001
	c0-26.48-21.52-48-48-48s-48,21.52-48,48s21.52,48,48,48S232.004,130.481,232.004,104.001z"/>
<g>
	<path style="fill:#007AFF;" d="M48.508,229.193l-48,128c-0.92,2.456-0.576,5.208,0.92,7.368c1.496,2.152,3.952,3.44,6.576,3.44h352
		c2.624,0,5.08-1.288,6.576-3.44c1.496-2.16,1.832-4.912,0.912-7.368l-48-128c-1.168-3.12-4.152-5.192-7.488-5.192h-73.376
		l35.584-62.696c9.024-16.352,13.792-34.92,13.792-53.704c0-59.328-46.656-107.6-104-107.6s-104,48.272-104,107.6
		c0,19.008,4.816,37.6,13.92,53.784l35.472,62.616H56.004C52.668,224.001,49.684,226.073,48.508,229.193z M96.004,107.601
		c0-50.504,39.48-91.6,88-91.6s88,41.096,88,91.6c0,16.088-4.08,31.984-11.76,45.888l-42.32,74.56v0.008l-33.92,59.872
		l-33.92-59.872c0-0.008-0.008-0.008-0.008-0.008l-42.216-74.528C100.108,139.745,96.004,123.865,96.004,107.601z M138.46,240.001
		l38.584,68.104c2.84,5.008,11.08,5.008,13.92,0l38.584-68.104h76.904l42,112H19.548l42-112H138.46z"/>
	<path style="fill:#007AFF;" d="M184.004,160.001c30.872,0,56-25.12,56-56s-25.128-56-56-56s-56,25.12-56,56
		S153.132,160.001,184.004,160.001z M184.004,64.001c22.056,0,40,17.944,40,40s-17.944,40-40,40s-40-17.944-40-40
		S161.948,64.001,184.004,64.001z"/>
</g>
<g>
</g>
<g>
</g>
<g>
</g>
<g>
</g>
<g>
</g>
<g>
</g>
<g>
</g>
<g>
</g>
<g>
</g>
<g>
</g>
<g>
</g>
<g>
</g>
<g>
</g>
<g>
</g>
<g>
</g>
</svg>
