<svg id="Layer_1" enable-background="new 0 0 480 480" height="512" viewBox="0 0 480 480" width="512" xmlns="http://www.w3.org/2000/svg"><path d="m408 25c13.25 0 24 10.75 24 24v399c0 13.25-10.75 24-24 24h-336c-13.25 0-24-10.75-24-24v-399c0-13.25 10.75-24 24-24z" fill="#b9dcff"/><path d="m83 36v425c0 6.075-4.925 11-11 11-13.255 0-24-10.745-24-24v-399c0-13.255 10.745-24 24-24 6.075 0 11 4.925 11 11z" fill="#d1e7ff"/><path d="m96 25v383c0 8.84 7.16 16 16 16h197l75-75v-324z" fill="#e8f3ff"/><path d="m384 171.703v177.297l-75 75h-197c-8.837 0-16-7.163-16-16v-140.831c0-9.148 7.659-16.453 16.795-15.972 89.817 4.731 177.883-26.846 244.062-90.965 10.157-9.841 27.143-2.672 27.143 11.471z" fill="#d1e7ff"/><path d="m384 349-75 75v-59c0-8.84 7.16-16 16-16z" fill="#b9dcff"/><path d="m323 56c0 8.84-7.16 16-16 16h-134c-8.84 0-16-7.16-16-16v-32c0-8.84 7.16-16 16-16h134c8.84 0 16 7.16 16 16z" fill="#b9dcff"/><path d="m307 8c12.292 0 11.38 17 .408 17h-78.408c-23.216 0-42.5 16.832-46.315 38.958-.806 4.674-4.942 8.042-9.685 8.042-8.837 0-16-7.163-16-16v-32c0-8.837 7.163-16 16-16z" fill="#d1e7ff"/><g fill="#2e58ff"><path d="m408 17h-78.041c-3.003-9.83-12.159-17-22.959-17h-134c-13.233 0-24 10.767-24 24v32c0 12.56 9.7 22.89 22 23.91v15.09c0 13.233 10.767 24 24 24h90c4.418 0 8-3.582 8-8s-3.582-8-8-8h-90c-4.411 0-8-3.589-8-8v-15h120c4.418 0 8-3.582 8-8s-3.582-8-8-8h-134c-4.411 0-8-3.589-8-8v-32c0-4.411 3.589-8 8-8h134c4.411 0 8 3.589 8 8v1c0 4.418 3.582 8 8 8h85c8.822 0 16 7.178 16 16v399c0 8.822-7.178 16-16 16h-336c-8.822 0-16-7.178-16-16v-399c0-8.822 7.178-16 16-16h16v375c0 13.233 10.767 24 24 24h197c2.122 0 4.156-.843 5.657-2.343l75-75c1.5-1.501 2.343-3.535 2.343-5.657v-266.968c0-4.418-3.582-8-8-8s-8 3.582-8 8v258.968h-51c-13.233 0-24 10.767-24 24v12.774c0 4.418 3.582 8 8 8s8-3.582 8-8v-12.774c0-4.411 3.589-8 8-8h39.687l-59 59h-193.687c-4.411 0-8-3.589-8-8v-375h9.581c4.418 0 8-3.582 8-8s-3.582-8-8-8h-41.581c-17.645 0-32 14.355-32 32v399c0 17.645 14.355 32 32 32h336c17.645 0 32-14.355 32-32v-399c0-17.645-14.355-32-32-32z"/><path d="m151.214 203.528c3.126 3.124 8.189 3.123 11.314 0l34-34c3.124-3.125 3.124-8.189 0-11.314-3.125-3.123-8.189-3.123-11.314 0l-28.343 28.344-7.214-7.215c-3.125-3.123-8.189-3.123-11.314 0-3.124 3.125-3.124 8.189 0 11.314z"/><path d="m151.214 283.528c3.126 3.124 8.189 3.123 11.314 0l34-34c3.124-3.125 3.124-8.189 0-11.314-3.125-3.123-8.189-3.123-11.314 0l-28.343 28.344-7.214-7.215c-3.125-3.123-8.189-3.123-11.314 0-3.124 3.125-3.124 8.189 0 11.314z"/><path d="m151.214 363.528c3.126 3.124 8.189 3.123 11.314 0l34-34c3.124-3.125 3.124-8.189 0-11.314-3.125-3.123-8.189-3.123-11.314 0l-28.343 28.344-7.214-7.215c-3.125-3.123-8.189-3.123-11.314 0-3.124 3.125-3.124 8.189 0 11.314z"/><path d="m228.161 193h107.839c4.418 0 8-3.582 8-8s-3.582-8-8-8h-107.839c-4.418 0-8 3.582-8 8s3.582 8 8 8z"/><path d="m228.161 273h107.839c4.418 0 8-3.582 8-8s-3.582-8-8-8h-107.839c-4.418 0-8 3.582-8 8s3.582 8 8 8z"/><path d="m228.161 353h43.839c4.418 0 8-3.582 8-8s-3.582-8-8-8h-43.839c-4.418 0-8 3.582-8 8s3.582 8 8 8z"/></g></svg>