<svg id="Layer_1" enable-background="new 0 0 480.017 480.017" height="512" viewBox="0 0 480.017 480.017" width="512" xmlns="http://www.w3.org/2000/svg"><path d="m448.009 33.017h-416c-13.25 0-24 10.75-24 24v321c0 13.25 10.75 24 24 24h150.02l-13.99 49.66c-2.87 10.21 4.8 20.34 15.4 20.34h113.14c10.6 0 18.27-10.13 15.4-20.34l-13.99-49.66h150.02c13.25 0 24-10.75 24-24v-321c0-13.25-10.75-24-24-24z" fill="#d1e7ff"/><path d="m448.009 33.017c13.255 0 24 10.745 24 24v4c0 6.627-5.373 12-12 12h-123c-150.213 0-272.699 118.709-278.765 267.433-.263 6.453-5.529 11.567-11.988 11.567h-38.247v-295c0-13.255 10.745-24 24-24z" fill="#e8f3ff"/><path d="m8.009 352.017v26c0 13.25 10.75 24 24 24h150.02l-13.99 49.66c-2.87 10.21 4.8 20.34 15.4 20.34h113.14c10.6 0 18.27-10.13 15.4-20.34l-13.99-49.66h150.02c13.25 0 24-10.75 24-24v-26z" fill="#b9dcff"/><path d="m184.635 472.017h-1.196c-10.6 0-18.27-10.13-15.4-20.34l13.99-49.66h40l-13.99 49.66c-3.962 14.094-12.785 20.34-23.404 20.34z" fill="#d1e7ff"/><path d="m58.009 364.017v26c0 6.627-5.373 12-12 12h-14c-13.255 0-24-10.745-24-24v-26h38c6.627 0 12 5.373 12 12z" fill="#d1e7ff"/><path d="m291.932 418.017h-103.847c-5.303 0-9.139-5.066-7.7-10.17l1.643-5.83h115.96l1.643 5.83c1.44 5.104-2.396 10.17-7.699 10.17z" fill="#a2d0ff"/><path d="m334.614 298.417c.13 0-34.673-11.954-34.805-12-17.823-6.156-29.47-22.938-29.47-41.13 29.15-11.95 49.67-40.6 49.67-74.04v-2.23c12.737 0 21.02-9.652 21.02-20.17v-76.41c.03-35.56-28.97-64.41-64.79-64.44h-55.13c-26.52-.01-50.37 15.98-60.24 40.42-12.16-.01-22.05 9.77-22.05 21.84v78.88c-.01 10.97 9.01 19.87 20.18 19.88h1.01c0 36.352 21.39 64.519 49.67 76.24-.075 18.311-11.626 34.996-29.47 41.16-.114.039-35.1 12-34.805 12-17.6 6.1-29.395 22.68-29.395 41.3v12.3h248v-12.3c0-18.62-11.795-35.2-29.395-41.3z" fill="#d1e7ff"/><path d="m250.984 234.63c9.22 1.16 9.359 14.558.156 15.844-49.042 6.851-91.132-31.824-91.132-80.116v-41.73c0-2.53 1.59-4.772 3.969-5.642 1.882-.699 3.717-1.497 5.5-2.396 5.291-2.668 11.531 1.323 11.531 7.249v26.518c.001 40.571 29.965 75.238 69.976 80.273z" fill="#e8f3ff"/><path d="m266.006 262.942c-16.155 5.575-34.627 5.94-52.016-.064-3.805-1.314-5.959-5.245-5.169-9.193.549-2.742.84-5.562.857-8.428 19.229 7.99 41.291 7.99 60.66.03.071.748-.042 3.964.879 8.501.801 3.94-1.411 7.843-5.211 9.154z" fill="#b9dcff"/><path d="m341.029 72.437v76.41c0 10.487-8.239 20.17-21.02 20.17v-38.026c0-3.526-3.023-6.303-6.534-5.975-41.448 3.877-80.627-7.557-112.022-29.562-2.968-2.08-7.082-1.119-8.769 2.089-6.306 11.994-16.332 20.873-28.705 25.442-2.374.877-3.969 3.111-3.969 5.642v40.39h-1.01c-11.17-.01-20.19-8.91-20.18-19.88v-78.88c0-12.07 9.89-21.85 22.05-21.84 9.87-24.44 33.72-40.43 60.24-40.42h55.13c35.819.03 64.819 28.88 64.789 64.44z" fill="#b9dcff"/><path d="m278.367 8.033c13.034.43 12.608 20.01-.433 20.09-7.385.046-16.171-.041-26.826-.127-25.143-.201-47.888 14.364-58.592 36.685-1.031 2.15-3.068 3.65-5.418 4.051-10.37 1.767-18.28 10.73-18.28 21.524v25.717c0 3-1.789 5.867-4.84 7.011-2.38.87-3.969 3.111-3.969 5.642v40.39h-1.01c-11.17-.01-20.19-8.91-20.18-19.88v-78.88c0-12.07 9.89-21.85 22.05-21.84 9.87-24.44 33.72-40.43 60.24-40.42 0 .001 56.551.014 57.258.037z" fill="#d1e7ff"/><path d="m364.009 339.717v12.3h-248v-12.3c0-18.62 11.795-35.2 29.395-41.3-.246 0 34.663-11.951 34.805-12 6.05-2.09 11.41-5.402 15.84-9.612 11.51 45.4 76.4 45.448 87.92-.002 4.43 4.2 9.79 7.523 15.84 9.613.1.034 34.905 12 34.805 12 17.6 6.101 29.395 22.681 29.395 41.301z" fill="#b9dcff"/><path d="m200.076 287.404c2.297 4.364.23 9.739-4.432 11.346-.104.036-22.141 7.666-22.245 7.666-23.051 7.989-28.137 27.629-29.182 38.343-.401 4.113-3.832 7.257-7.964 7.257h-20.243v-12.3c0-18.62 11.795-35.2 29.395-41.3-.245 0 34.663-11.951 34.805-12 6.05-2.09 11.41-5.402 15.84-9.612.975 3.862 2.34 7.396 4.026 10.6z" fill="#d1e7ff"/><path d="m360.009 141.577v29.88c0 9.43-7.429 17.151-16.76 17.54-.678.028.634.02-15.24.02-4.418 0-8-3.582-8-8v-49c0-4.418 3.582-8 8-8h14.44c9.698 0 17.56 7.862 17.56 17.56z" fill="#b9dcff"/><path d="m344.546 135.017c-5.553 0-8.538 4.011-8.538 8v40.588c0 2.989-2.423 5.412-5.412 5.412h-2.588c-4.418 0-8-3.582-8-8v-49c0-4.418 3.582-8 8-8 14.68 0 15.401-.128 17.686.3 6.369 1.192 5.332 10.7-1.148 10.7z" fill="#d1e7ff"/><path d="m160.009 132.017v49c0 4.418-3.582 8-8 8h-14.44c-9.698 0-17.56-7.862-17.56-17.56v-29.88c0-9.698 7.862-17.56 17.56-17.56h14.44c4.418 0 8 3.582 8 8z" fill="#b9dcff"/><path d="m160.009 132.017c0 2.209-1.791 4-4 4-10.743 0-18.082 8.3-18 17.56.001.061.084 9.112.037 18.177-.06 11.611-18.037 12.473-18.037-.298v-29.88c0-9.698 7.862-17.56 17.56-17.56h14.44c4.418.001 8 3.583 8 8.001z" fill="#d1e7ff"/><g fill="#2e58ff"><path d="m448.009 394.017h-416c-8.822 0-16-7.178-16-16v-321c0-8.822 7.178-16 16-16h88c4.418 0 8-3.582 8-8s-3.582-8-8-8h-88c-17.645 0-32 14.355-32 32v321c0 17.645 14.355 32 32 32h139.455l-11.127 39.496c-4.302 15.308 7.176 30.504 23.102 30.504h113.14c15.901 0 27.411-15.172 23.102-30.504-1.195-4.253-5.613-6.731-9.866-5.537-4.253 1.196-6.732 5.613-5.537 9.866 1.438 5.119-2.405 10.175-7.699 10.175h-113.14c-5.3 0-9.135-5.064-7.7-10.17l12.348-43.83h259.922c4.418 0 8-3.582 8-8s-3.582-8-8-8z"/><path d="m448.009 25.017h-79c-4.418 0-8 3.582-8 8s3.582 8 8 8h79c8.822 0 16 7.178 16 16v287h-92v-4.295c0-22.056-14.01-41.704-34.862-48.894l-34.729-11.977c-12.716-4.385-21.748-15.511-23.676-28.55 30.423-14.966 49.267-45.922 49.267-79.058v-39.227h14.442c5.271 0 9.558 4.288 9.558 9.558v29.884c0 5.125-4.005 9.32-9.118 9.548-3.661.164-6.743 2.795-7.479 6.385-4.481 21.851-15.047 41.914-30.558 58.022-4.908 5.097-1.226 13.549 5.762 13.549 2.098 0 4.194-.82 5.764-2.451 16.348-16.978 27.861-37.831 33.502-60.585 10.547-3.18 18.127-12.944 18.127-24.468v-29.884c0-11.817-8.063-21.783-18.976-24.695v-44.436c.025-40.024-32.538-72.419-72.793-72.443h-55.169c-28.271 0-53.511 15.895-65.616 40.899-13.988 2.534-24.631 14.729-24.641 29.357v23.148c0 4.418 3.582 8 8 8s8-3.582 8-8v-23.142c.005-7.637 6.302-13.846 14.04-13.846 3.323 0 6.227-2.018 7.433-5.005 8.685-21.515 29.4-35.411 52.789-35.411h55.16c31.419.019 56.816 25.263 56.797 56.438v43.579c-13.66 0-13.989-.196-15.901.542-41.778 5.051-83.264-6.14-116.7-31.767-4.253-3.259-10.453-1.494-12.349 3.52-4.903 12.959-14.79 23.22-28.43 27.705h-22.085c-14.093 0-25.558 11.465-25.558 25.558v29.884c0 9.305 5.063 17.882 13.214 22.383 3.859 2.132 8.731.74 10.871-3.135 2.136-3.868.732-8.735-3.135-10.871-3.053-1.686-4.949-4.896-4.949-8.377v-29.884c0-5.271 4.288-9.558 9.558-9.558h14.442v38.34c.001 17.966 5.319 35.315 15.38 50.173 2.477 3.658 7.45 4.616 11.11 2.138 3.658-2.477 4.616-7.451 2.138-11.109-8.262-12.201-12.628-26.45-12.628-41.207v-40.348c12.641-4.981 23.462-14.09 30.668-26.739 34.13 23.289 74.067 33.058 113.332 29.901v38.077c0 51.148-52.097 86.173-99.271 66.624-5.168-2.146-10.939 1.588-11.055 7.223-.358 16.72-10.704 29.148-24.084 33.761l-34.807 12.002c-11.341 3.931-21.019 11.742-27.258 22.002-3.249 5.344.636 12.158 6.828 12.158 2.701 0 5.337-1.368 6.843-3.844 4.32-7.104 11.025-12.507 18.881-15.216 37.575-12.957 38.185-12.805 44.161-16.336 13.796 28.468 49.316 37.04 75.221 21.965 3.819-2.223 5.113-7.12 2.891-10.938-2.223-3.819-7.121-5.112-10.938-2.891-18.919 11.012-45.892 4.307-54.359-18.851 5.605-6.486 9.576-14.328 11.429-22.85 15.208 4.238 31.618 4.276 47.043.028 3.789 17.379 16.384 31.939 33.668 37.899l34.731 11.975c14.4 4.965 24.076 18.536 24.076 33.769v4.295h-290.099c-4.418 0-8 3.582-8 8s3.582 8 8 8h406.097c4.418 0 8-3.582 8-8v-295c0-17.646-14.355-32.001-32-32.001z"/></g></svg>