<?xml version="1.0" encoding="utf-8"?>
<!-- Generator: Adobe Illustrator 19.2.1, SVG Export Plug-In . SVG Version: 6.00 Build 0)  -->
<svg xmlns="http://www.w3.org/2000/svg" xmlns:xlink="http://www.w3.org/1999/xlink" version="1.1" id="Layer" x="0px" y="0px" width="512" height="512" viewBox="0 0 64 64" enable-background="new 0 0 64 64" xml:space="preserve">
<path fill="#CCE4FF" d="M12,18c-1.3,4.58-1.96,9.29-1.96,14c0,4.71,0.66,9.42,1.96,14h40c2.67-8.94,2.67-18.64,0-28H12z   M35.78,33.62l-5.6,4.07C28.85,38.65,27,37.71,27,36.07v-8.14c0-1.64,1.85-2.58,3.18-1.62l5.6,4.07  C36.87,31.18,36.87,32.82,35.78,33.62z"/>
<path fill="#007AFF" d="M53.51,16H10.491l-0.414,1.451c-2.72,9.518-2.72,19.581,0,29.099L10.491,48h43l0.426-1.429  c2.777-9.317,2.779-19.386,0.007-29.119L53.51,16z M50.484,44H13.532c-1.993-7.881-1.993-16.119,0-24h36.936  C52.507,28.044,52.513,36.282,50.484,44z"/>
<path fill="#007AFF" d="M36.953,28.765l-5.601-4.072c-1.223-0.89-2.819-1.017-4.168-0.329C25.837,25.049,25,26.415,25,27.928v8.145  c0,1.512,0.837,2.878,2.185,3.564c0.577,0.294,1.199,0.439,1.818,0.439c0.828,0,1.65-0.259,2.351-0.768l5.6-4.073  C37.984,34.484,38.6,33.275,38.6,32S37.984,29.516,36.953,28.765z M29.001,36.086L29,27.928L34.6,32L29.001,36.086z"/>
</svg>
